<svg width="203" height="53" viewBox="0 0 203 53" fill="none" xmlns="http://www.w3.org/2000/svg">
<path d="M50.8399 44.9849C48.0628 44.9849 45.8922 44.3625 44.3281 43.1176C42.796 41.8408 41.8224 40.149 41.4074 38.0422H40.1625V32.8711H41.0722C41.0722 34.2118 41.3436 35.2971 41.8862 36.127C42.4289 36.9569 43.2109 37.5475 44.2324 37.8986C45.2858 38.2497 46.5626 38.4253 48.0628 38.4253C49.6269 38.4253 50.9038 38.2337 51.8933 37.8507C52.8828 37.4677 53.617 36.8452 54.0958 35.9834C54.5746 35.1215 54.814 33.9724 54.814 32.5359C54.814 31.0357 54.5746 29.8706 54.0958 29.0406C53.617 28.1788 52.8828 27.5723 51.8933 27.2212C50.9038 26.8381 49.6429 26.6466 48.1107 26.6466C45.7805 26.6466 44.0249 27.0935 42.8438 27.9873C41.6628 28.8491 41.0722 30.3494 41.0722 32.4881H40.1625L39.6358 27.0775H41.0244C41.4393 24.7793 42.4289 23.0396 43.993 21.8585C45.589 20.6456 47.7915 20.0391 50.6005 20.0391C53.0584 20.0391 55.1332 20.5498 56.825 21.5712C58.5487 22.5927 59.8575 24.0451 60.7512 25.9284C61.645 27.7798 62.0919 29.9823 62.0919 32.5359C62.0919 35.0577 61.645 37.2602 60.7512 39.1435C59.8894 40.9949 58.6126 42.4313 56.9208 43.4527C55.2609 44.4742 53.234 44.9849 50.8399 44.9849ZM41.0722 52.6459H33.8901V20.5179H40.5456V27.6521L41.0722 28.2746V52.6459Z" fill="url(#paint0_linear_22_454)"/>
<path d="M20.9099 40.0774C16.6505 40.0774 12.9332 39.2642 9.75797 37.6379C6.62148 35.9729 4.20135 33.6495 2.49758 30.6679C0.832526 27.6476 0 24.1045 0 20.0387C0 15.9729 0.832526 12.4492 2.49758 9.46756C4.20135 6.44723 6.62148 4.1239 9.75797 2.49758C12.9332 0.832525 16.6505 0 20.9099 0C25.3243 0 29.0997 0.832525 32.2362 2.49758C35.3727 4.1239 37.7928 6.44723 39.4966 9.46756C41.2003 12.4492 42.0522 15.9729 42.0522 20.0387C42.0522 24.1045 41.2003 27.6476 39.4966 30.6679C37.7928 33.6495 35.3727 35.9729 32.2362 37.6379C29.0997 39.2642 25.3243 40.0774 20.9099 40.0774ZM20.9099 31.7134C23.7754 31.7134 26.06 31.3456 27.7638 30.6098C29.5063 29.8354 30.7647 28.5963 31.5392 26.8925C32.3523 25.1887 32.7589 22.9041 32.7589 20.0387C32.7589 17.1345 32.3523 14.8499 31.5392 13.1849C30.7647 11.4811 29.5063 10.2614 27.7638 9.52564C26.06 8.7512 23.7754 8.36398 20.9099 8.36398C18.0832 8.36398 15.818 8.7512 14.1142 9.52564C12.4104 10.2614 11.1713 11.4811 10.3969 13.1849C9.62245 14.8499 9.23523 17.1345 9.23523 20.0387C9.23523 22.9041 9.62245 25.1887 10.3969 26.8925C11.1713 28.5963 12.4104 29.8354 14.1142 30.6098C15.818 31.3456 18.0832 31.7134 20.9099 31.7134Z" fill="url(#paint1_radial_22_454)"/>
<path d="M84.8163 23.2995C82.706 23.2995 80.857 22.8775 79.2693 22.0333C77.7016 21.1691 76.4757 19.9633 75.5913 18.4157C74.7271 16.8481 74.295 15.0091 74.295 12.8989C74.295 10.7886 74.7271 8.95967 75.5913 7.41213C76.4757 5.8445 77.7016 4.63862 79.2693 3.79451C80.857 2.9303 82.706 2.4982 84.8163 2.4982C86.9668 2.4982 88.8258 2.9303 90.3934 3.79451C91.9611 4.63862 93.177 5.8445 94.0412 7.41213C94.9255 8.95967 95.3677 10.7886 95.3677 12.8989C95.3677 15.0091 94.9255 16.8481 94.0412 18.4157C93.177 19.9633 91.9611 21.1691 90.3934 22.0333C88.8258 22.8775 86.9668 23.2995 84.8163 23.2995ZM84.8163 20.1642C86.404 20.1642 87.7204 19.913 88.7655 19.4106C89.8307 18.888 90.6246 18.0942 91.1471 17.029C91.6697 15.9437 91.9309 14.567 91.9309 12.8989C91.9309 11.2106 91.6697 9.83393 91.1471 8.76874C90.6246 7.70355 89.8307 6.91973 88.7655 6.41729C87.7204 5.89474 86.404 5.63347 84.8163 5.63347C83.2285 5.63347 81.9021 5.89474 80.8369 6.41729C79.7918 6.91973 79.008 7.70355 78.4854 8.76874C77.983 9.83393 77.7318 11.2106 77.7318 12.8989C77.7318 14.567 77.983 15.9437 78.4854 17.029C79.008 18.0942 79.7918 18.888 80.8369 19.4106C81.9021 19.913 83.2285 20.1642 84.8163 20.1642ZM106.697 23.2995C105.028 23.2995 103.662 22.8875 102.597 22.0635C101.531 21.2395 100.848 20.1441 100.547 18.7775H99.8532V15.7628H100.426C100.426 16.7677 100.637 17.6219 101.059 18.3253C101.481 19.0086 102.074 19.5211 102.838 19.8628C103.622 20.1843 104.536 20.3451 105.581 20.3451C106.666 20.3451 107.581 20.1944 108.324 19.8929C109.088 19.5714 109.671 19.0589 110.073 18.3554C110.475 17.652 110.676 16.7074 110.676 15.5216C110.676 14.3158 110.475 13.3611 110.073 12.6577C109.671 11.9543 109.088 11.4518 108.324 11.1503C107.581 10.8489 106.686 10.6981 105.641 10.6981C103.973 10.6981 102.687 11.1001 101.783 11.904C100.878 12.6878 100.426 13.8837 100.426 15.4915H99.8532L99.6422 12.1753H100.426C100.727 10.7886 101.401 9.70329 102.446 8.91947C103.511 8.11556 104.918 7.7136 106.666 7.7136C108.214 7.7136 109.53 8.04521 110.616 8.70844C111.701 9.35158 112.525 10.256 113.088 11.4217C113.65 12.5873 113.932 13.954 113.932 15.5216C113.932 17.0491 113.65 18.4057 113.088 19.5915C112.545 20.7571 111.731 21.6716 110.646 22.3348C109.581 22.9779 108.264 23.2995 106.697 23.2995ZM100.426 28.123H97.1701V8.01507H100.155V12.718L100.426 13.1099V28.123ZM131.352 22.998H128.127V14.8584C128.127 13.3511 127.775 12.2758 127.072 11.6327C126.368 10.9695 125.233 10.6378 123.665 10.6378C122.479 10.6378 121.535 10.8489 120.831 11.2709C120.128 11.6729 119.615 12.2557 119.294 13.0194C118.992 13.7631 118.841 14.6675 118.841 15.7327L118.208 15.7628L118.359 12.5974H119.022C119.203 11.7533 119.525 10.9594 119.987 10.2158C120.469 9.47217 121.143 8.86923 122.007 8.40698C122.871 7.94473 123.936 7.7136 125.202 7.7136C126.569 7.7136 127.705 7.99497 128.609 8.55771C129.534 9.10035 130.217 9.85403 130.659 10.8187C131.121 11.7633 131.352 12.8486 131.352 14.0746V22.998ZM118.841 22.998H115.586V2.79967H118.841V22.998ZM147.846 22.998H144.862V19.1393L144.651 19.0488V13.9238C144.651 12.6778 144.349 11.8136 143.746 11.3312C143.163 10.8288 142.148 10.5775 140.701 10.5775C139.315 10.5775 138.28 10.8187 137.596 11.3011C136.913 11.7834 136.571 12.5773 136.571 13.6827V13.8033H133.346V13.6827C133.346 12.5371 133.647 11.5222 134.25 10.6378C134.853 9.73344 135.717 9.01996 136.843 8.49742C137.988 7.97487 139.355 7.7136 140.943 7.7136C142.53 7.7136 143.827 7.98492 144.832 8.52756C145.857 9.05011 146.61 9.77363 147.093 10.6981C147.595 11.6226 147.846 12.6878 147.846 13.8937V22.998ZM138.079 23.2995C136.531 23.2995 135.295 22.9579 134.371 22.2745C133.466 21.5711 133.014 20.6064 133.014 19.3804C133.014 18.5966 133.205 17.9434 133.587 17.4209C133.989 16.8782 134.551 16.4562 135.275 16.1547C135.999 15.8532 136.853 15.6422 137.837 15.5216L144.952 14.768V16.6974L138.772 17.3907C137.928 17.4912 137.295 17.6721 136.873 17.9334C136.471 18.1746 136.27 18.5866 136.27 19.1694C136.27 19.7723 136.481 20.2245 136.903 20.526C137.345 20.8074 138.028 20.9481 138.953 20.9481C140.099 20.9481 141.093 20.8074 141.937 20.526C142.782 20.2245 143.445 19.7623 143.927 19.1393C144.41 18.5162 144.651 17.7123 144.651 16.7275L145.073 16.7878V19.2598H144.651C144.249 20.526 143.475 21.5209 142.329 22.2444C141.204 22.9478 139.787 23.2995 138.079 23.2995ZM165.796 22.998H162.54V14.8584C162.54 13.4515 162.198 12.3964 161.515 11.693C160.852 10.9896 159.736 10.6378 158.169 10.6378C156.541 10.6378 155.335 11.0599 154.551 11.904C153.787 12.728 153.406 13.954 153.406 15.5819L152.833 15.6121L152.682 12.6577H153.345C153.506 11.8136 153.828 11.0197 154.31 10.2761C154.812 9.51236 155.496 8.89938 156.36 8.43712C157.244 7.95477 158.319 7.7136 159.586 7.7136C160.972 7.7136 162.128 7.99497 163.052 8.55771C163.977 9.12045 164.66 9.87412 165.102 10.8187C165.565 11.7633 165.796 12.8185 165.796 13.9841V22.998ZM153.406 22.998H150.15V8.01507H153.134V12.718L153.406 12.8687V22.998ZM171.35 22.998H168.094V8.01507H171.35V22.998ZM171.35 6.26655H168.094V2.79967H171.35V6.26655ZM200.261 22.998H197.035V14.8584C197.035 13.3712 196.724 12.2959 196.101 11.6327C195.478 10.9695 194.433 10.6378 192.965 10.6378C191.378 10.6378 190.252 11.0498 189.589 11.8739C188.946 12.6778 188.624 13.9138 188.624 15.5819L188.052 15.6121L187.871 12.6577H188.534C188.675 11.7935 188.966 10.9896 189.408 10.2459C189.85 9.50231 190.483 8.89938 191.307 8.43712C192.131 7.95477 193.166 7.7136 194.413 7.7136C195.719 7.7136 196.804 7.98492 197.668 8.52756C198.533 9.07021 199.176 9.81383 199.598 10.7584C200.04 11.703 200.261 12.7783 200.261 13.9841V22.998ZM177.018 22.998H173.762V8.01507H176.746V12.718L177.018 12.8687V22.998ZM188.624 22.998H185.399V14.8584C185.399 13.3712 185.087 12.2959 184.464 11.6327C183.841 10.9695 182.806 10.6378 181.359 10.6378C179.751 10.6378 178.626 11.0498 177.982 11.8739C177.339 12.6778 177.018 13.9138 177.018 15.5819L176.445 15.6121L176.294 12.5371H176.927C177.068 11.693 177.349 10.9092 177.771 10.1856C178.194 9.46212 178.806 8.86923 179.61 8.40698C180.414 7.94473 181.439 7.7136 182.685 7.7136C183.992 7.7136 185.067 7.99497 185.911 8.55771C186.755 9.10035 187.388 9.84398 187.81 10.7886C188.232 11.7332 188.443 12.7984 188.443 13.9841H188.624V22.998Z" fill="black"/>
<path d="M81.2513 45.6475H79.0552V31.8964H81.2513V45.6475ZM86.6491 33.8872H73.6369V31.8964H86.6491V33.8872ZM92.6663 45.8527C91.558 45.8527 90.5866 45.6475 89.7519 45.237C88.9173 44.8265 88.2674 44.2245 87.8022 43.4309C87.3506 42.6373 87.1249 41.6795 87.1249 40.5575C87.1249 39.4903 87.3506 38.5598 87.8022 37.7662C88.2674 36.9727 88.9104 36.3569 89.7314 35.9191C90.5524 35.4676 91.517 35.2418 92.6253 35.2418C93.6789 35.2418 94.6024 35.4334 95.396 35.8165C96.2033 36.1859 96.8259 36.7332 97.2637 37.4584C97.7152 38.1699 97.941 39.0456 97.941 40.0855C97.941 40.2633 97.9342 40.4344 97.9205 40.5986C97.9068 40.7491 97.8863 40.8996 97.8589 41.0501H88.541V39.8186H96.4017L95.827 40.578C95.8407 40.4412 95.8476 40.3112 95.8476 40.1881C95.8476 40.0513 95.8476 39.9144 95.8476 39.7776C95.8476 38.8335 95.5739 38.1357 95.0266 37.6842C94.493 37.2189 93.6789 36.9863 92.5842 36.9863C91.3665 36.9863 90.4976 37.2668 89.9777 37.8278C89.4578 38.3888 89.1978 39.1961 89.1978 40.2497V40.7833C89.1978 41.8505 89.4578 42.6646 89.9777 43.2256C90.4976 43.7866 91.3733 44.0671 92.6048 44.0671C93.672 44.0671 94.4382 43.9029 94.9035 43.5745C95.3823 43.2325 95.6218 42.7604 95.6218 42.1584V41.9942H97.8384V42.1789C97.8384 42.9041 97.6126 43.5472 97.1611 44.1082C96.7232 44.6555 96.1144 45.0865 95.3345 45.4012C94.5682 45.7022 93.6789 45.8527 92.6663 45.8527ZM104.342 45.8527C103.22 45.8527 102.242 45.6338 101.407 45.1959C100.573 44.7444 99.9227 44.1218 99.4575 43.3283C99.006 42.521 98.7802 41.5974 98.7802 40.5575C98.7802 39.4903 99.006 38.5598 99.4575 37.7662C99.9227 36.9727 100.573 36.3569 101.407 35.9191C102.242 35.4676 103.22 35.2418 104.342 35.2418C105.368 35.2418 106.278 35.4197 107.072 35.7754C107.866 36.1312 108.488 36.6306 108.94 37.2737C109.405 37.9031 109.637 38.6488 109.637 39.5108V39.716H107.441V39.5929C107.441 38.7993 107.168 38.2109 106.62 37.8278C106.073 37.431 105.3 37.2326 104.301 37.2326C103.152 37.2326 102.31 37.5131 101.777 38.0741C101.243 38.6214 100.976 39.4492 100.976 40.5575C100.976 41.6521 101.243 42.4799 101.777 43.0409C102.31 43.5882 103.152 43.8619 104.301 43.8619C105.3 43.8619 106.073 43.6703 106.62 43.2872C107.168 42.8904 107.441 42.2952 107.441 41.5016V41.3579H109.637V41.5837C109.637 42.432 109.405 43.1777 108.94 43.8208C108.488 44.4639 107.866 44.9633 107.072 45.3191C106.278 45.6748 105.368 45.8527 104.342 45.8527ZM121.6 45.6475H119.404V40.106C119.404 39.0798 119.165 38.3478 118.686 37.9099C118.207 37.4584 117.434 37.2326 116.367 37.2326C115.559 37.2326 114.916 37.3763 114.437 37.6636C113.958 37.9373 113.61 38.3341 113.391 38.854C113.185 39.3603 113.083 39.976 113.083 40.7012L112.652 40.7217L112.754 38.5667H113.206C113.329 37.992 113.548 37.4515 113.863 36.9453C114.191 36.439 114.649 36.0286 115.238 35.7138C115.826 35.3991 116.551 35.2418 117.413 35.2418C118.344 35.2418 119.117 35.4334 119.733 35.8165C120.362 36.1859 120.827 36.699 121.128 37.3558C121.443 37.9989 121.6 38.7377 121.6 39.5724V45.6475ZM113.083 45.6475H110.866V31.8964H113.083V45.6475ZM133.835 45.6475H131.618V40.106C131.618 39.1482 131.386 38.4299 130.92 37.951C130.469 37.4721 129.71 37.2326 128.642 37.2326C127.534 37.2326 126.713 37.52 126.179 38.0946C125.66 38.6556 125.4 39.4903 125.4 40.5986L125.01 40.6191L124.907 38.6077H125.358C125.468 38.0331 125.687 37.4926 126.015 36.9863C126.357 36.4664 126.823 36.0491 127.411 35.7344C128.013 35.406 128.745 35.2418 129.607 35.2418C130.551 35.2418 131.338 35.4334 131.967 35.8165C132.597 36.1996 133.062 36.7127 133.363 37.3558C133.678 37.9989 133.835 38.7172 133.835 39.5108V45.6475ZM125.4 45.6475H123.183V35.447H125.215V38.6488L125.4 38.7514V45.6475ZM140.613 45.8527C139.491 45.8527 138.499 45.6338 137.637 45.1959C136.788 44.7444 136.125 44.1218 135.646 43.3283C135.181 42.521 134.948 41.5974 134.948 40.5575C134.948 39.4903 135.181 38.5598 135.646 37.7662C136.125 36.9727 136.788 36.3569 137.637 35.9191C138.499 35.4676 139.491 35.2418 140.613 35.2418C141.762 35.2418 142.761 35.4676 143.609 35.9191C144.457 36.3569 145.114 36.9727 145.579 37.7662C146.058 38.5598 146.298 39.4903 146.298 40.5575C146.298 41.5974 146.058 42.521 145.579 43.3283C145.114 44.1218 144.457 44.7444 143.609 45.1959C142.761 45.6338 141.762 45.8527 140.613 45.8527ZM140.613 43.8824C141.858 43.8824 142.754 43.6019 143.301 43.0409C143.849 42.4662 144.122 41.6384 144.122 40.5575C144.122 39.4766 143.849 38.6488 143.301 38.0741C142.754 37.4858 141.858 37.1916 140.613 37.1916C139.381 37.1916 138.492 37.4858 137.945 38.0741C137.397 38.6488 137.124 39.4766 137.124 40.5575C137.124 41.6384 137.397 42.4662 137.945 43.0409C138.492 43.6019 139.381 43.8824 140.613 43.8824ZM149.712 45.6475H147.496V31.8964H149.712V45.6475ZM156.568 45.8527C155.446 45.8527 154.454 45.6338 153.592 45.1959C152.743 44.7444 152.08 44.1218 151.601 43.3283C151.136 42.521 150.903 41.5974 150.903 40.5575C150.903 39.4903 151.136 38.5598 151.601 37.7662C152.08 36.9727 152.743 36.3569 153.592 35.9191C154.454 35.4676 155.446 35.2418 156.568 35.2418C157.717 35.2418 158.716 35.4676 159.564 35.9191C160.412 36.3569 161.069 36.9727 161.534 37.7662C162.013 38.5598 162.253 39.4903 162.253 40.5575C162.253 41.5974 162.013 42.521 161.534 43.3283C161.069 44.1218 160.412 44.7444 159.564 45.1959C158.716 45.6338 157.717 45.8527 156.568 45.8527ZM156.568 43.8824C157.813 43.8824 158.709 43.6019 159.256 43.0409C159.804 42.4662 160.077 41.6384 160.077 40.5575C160.077 39.4766 159.804 38.6488 159.256 38.0741C158.709 37.4858 157.813 37.1916 156.568 37.1916C155.336 37.1916 154.447 37.4858 153.899 38.0741C153.352 38.6488 153.079 39.4766 153.079 40.5575C153.079 41.6384 153.352 42.4662 153.899 43.0409C154.447 43.6019 155.336 43.8824 156.568 43.8824ZM168.808 49.3418C167.795 49.3418 166.906 49.1844 166.139 48.8697C165.373 48.5687 164.771 48.1309 164.333 47.5562C163.909 46.9815 163.697 46.2837 163.697 45.4627H165.893C165.893 45.9553 165.996 46.3521 166.201 46.6531C166.406 46.9542 166.728 47.1662 167.166 47.2894C167.617 47.4262 168.206 47.4946 168.931 47.4946C169.711 47.4946 170.326 47.4057 170.778 47.2278C171.243 47.0636 171.578 46.7694 171.784 46.3453C171.989 45.9211 172.091 45.3328 172.091 44.5802V38.6077L172.256 38.4641V35.447H174.288V44.4571C174.288 45.5927 174.062 46.5163 173.61 47.2278C173.159 47.953 172.522 48.4866 171.701 48.8287C170.881 49.1707 169.916 49.3418 168.808 49.3418ZM167.884 44.7239C166.872 44.7239 166.003 44.5255 165.277 44.1287C164.566 43.7319 164.012 43.1777 163.615 42.4662C163.232 41.7547 163.04 40.9269 163.04 39.9828C163.04 39.0387 163.239 38.2109 163.636 37.4994C164.046 36.7879 164.621 36.2338 165.36 35.837C166.112 35.4402 167.002 35.2418 168.028 35.2418C169.095 35.2418 169.998 35.4812 170.737 35.9601C171.489 36.4253 171.955 37.1026 172.132 37.992H172.605L172.481 39.7776H172.091C172.091 39.2029 171.955 38.724 171.681 38.3409C171.407 37.9441 171.017 37.6499 170.511 37.4584C170.005 37.2668 169.389 37.1711 168.664 37.1711C167.966 37.1711 167.357 37.26 166.837 37.4379C166.331 37.6157 165.941 37.9099 165.667 38.3204C165.407 38.7172 165.277 39.2713 165.277 39.9828C165.277 40.6807 165.407 41.2348 165.667 41.6453C165.927 42.0558 166.304 42.3568 166.796 42.5483C167.303 42.7262 167.905 42.8152 168.602 42.8152C169.724 42.8152 170.586 42.5825 171.188 42.1173C171.79 41.6521 172.091 40.968 172.091 40.0649H172.481V42.0763H171.948C171.77 42.8562 171.339 43.4924 170.655 43.985C169.971 44.4776 169.047 44.7239 167.884 44.7239ZM178.145 45.6475H175.928V35.447H178.145V45.6475ZM178.145 34.2566H175.928V31.8964H178.145V34.2566ZM184.918 45.8527C183.809 45.8527 182.838 45.6475 182.003 45.237C181.169 44.8265 180.519 44.2245 180.053 43.4309C179.602 42.6373 179.376 41.6795 179.376 40.5575C179.376 39.4903 179.602 38.5598 180.053 37.7662C180.519 36.9727 181.162 36.3569 181.983 35.9191C182.804 35.4676 183.768 35.2418 184.877 35.2418C185.93 35.2418 186.854 35.4334 187.647 35.8165C188.455 36.1859 189.077 36.7332 189.515 37.4584C189.967 38.1699 190.192 39.0456 190.192 40.0855C190.192 40.2633 190.185 40.4344 190.172 40.5986C190.158 40.7491 190.138 40.8996 190.11 41.0501H180.792V39.8186H188.653L188.078 40.578C188.092 40.4412 188.099 40.3112 188.099 40.1881C188.099 40.0513 188.099 39.9144 188.099 39.7776C188.099 38.8335 187.825 38.1357 187.278 37.6842C186.744 37.2189 185.93 36.9863 184.836 36.9863C183.618 36.9863 182.749 37.2668 182.229 37.8278C181.709 38.3888 181.449 39.1961 181.449 40.2497V40.7833C181.449 41.8505 181.709 42.6646 182.229 43.2256C182.749 43.7866 183.625 44.0671 184.856 44.0671C185.923 44.0671 186.69 43.9029 187.155 43.5745C187.634 43.2325 187.873 42.7604 187.873 42.1584V41.9942H190.09V42.1789C190.09 42.9041 189.864 43.5472 189.412 44.1082C188.975 44.6555 188.366 45.0865 187.586 45.4012C186.82 45.7022 185.93 45.8527 184.918 45.8527ZM196.265 45.8527C194.623 45.8527 193.351 45.538 192.448 44.9086C191.558 44.2792 191.114 43.3761 191.114 42.1994V42.1379H193.33V42.3021C193.33 42.9725 193.549 43.4377 193.987 43.6977C194.439 43.944 195.198 44.0671 196.265 44.0671C197.264 44.0671 197.941 43.9645 198.297 43.7593C198.666 43.5403 198.851 43.2051 198.851 42.7536C198.851 42.3294 198.708 42.0284 198.42 41.8505C198.147 41.6726 197.64 41.5358 196.901 41.44L194.11 41.0706C193.139 40.9475 192.379 40.6738 191.832 40.2497C191.285 39.8118 191.011 39.1619 191.011 38.2999C191.011 37.6978 191.189 37.1711 191.545 36.7195C191.9 36.2543 192.434 35.8917 193.146 35.6318C193.857 35.3718 194.733 35.2418 195.773 35.2418C196.812 35.2418 197.702 35.3786 198.441 35.6523C199.193 35.9259 199.768 36.3364 200.165 36.8837C200.575 37.431 200.78 38.1083 200.78 38.9156V38.9772H198.584V38.854C198.584 38.4572 198.502 38.122 198.338 37.8483C198.174 37.5747 197.88 37.3695 197.456 37.2326C197.045 37.0821 196.464 37.0069 195.711 37.0069C194.767 37.0069 194.11 37.1163 193.741 37.3352C193.371 37.5542 193.187 37.9031 193.187 38.382C193.187 38.7788 193.323 39.0661 193.597 39.244C193.871 39.4219 194.384 39.5655 195.136 39.675L197.497 40.0034C198.701 40.1539 199.59 40.4481 200.165 40.8859C200.739 41.3237 201.027 41.9668 201.027 42.8152C201.027 43.4446 200.828 43.9919 200.432 44.4571C200.035 44.9086 199.481 45.2575 198.769 45.5038C198.058 45.7364 197.223 45.8527 196.265 45.8527Z" fill="#484848"/>
<defs>
<linearGradient id="paint0_linear_22_454" x1="47.991" y1="20.0391" x2="47.991" y2="52.6459" gradientUnits="userSpaceOnUse">
<stop stop-color="#1877F2"/>
<stop offset="1" stop-color="#709BCB"/>
</linearGradient>
<radialGradient id="paint1_radial_22_454" cx="0" cy="0" r="1" gradientUnits="userSpaceOnUse" gradientTransform="translate(7.95161 5.86844) rotate(38.4693) scale(40.3542 42.3427)">
<stop stop-color="#1B5FAA"/>
<stop offset="0.835321" stop-color="#3072B6"/>
<stop offset="1" stop-color="#90CEF1"/>
</radialGradient>
</defs>
</svg>
