<svg width="75" height="75" viewBox="0 0 75 75" fill="none" xmlns="http://www.w3.org/2000/svg">
<g clip-path="url(#clip0_86_4461)">
<mask id="mask0_86_4461" style="mask-type:luminance" maskUnits="userSpaceOnUse" x="5" y="4" width="66" height="66">
<path d="M54.0031 4.99023H21.5472C12.5848 4.99023 5.31934 12.2557 5.31934 21.2181V53.674C5.31934 62.6364 12.5848 69.9019 21.5472 69.9019H54.0031C62.9655 69.9019 70.231 62.6364 70.231 53.674V21.2181C70.231 12.2557 62.9655 4.99023 54.0031 4.99023Z" fill="white"/>
</mask>
<g mask="url(#mask0_86_4461)">
<path d="M54.0031 4.99023H21.5472C12.5848 4.99023 5.31934 12.2557 5.31934 21.2181V53.674C5.31934 62.6364 12.5848 69.9019 21.5472 69.9019H54.0031C62.9655 69.9019 70.231 62.6364 70.231 53.674V21.2181C70.231 12.2557 62.9655 4.99023 54.0031 4.99023Z" fill="#3B9DFB"/>
<g filter="url(#filter0_i_86_4461)">
<path d="M54.0031 4.99023H21.5472C12.5848 4.99023 5.31934 12.2557 5.31934 21.2181V53.674C5.31934 62.6364 12.5848 69.9019 21.5472 69.9019H54.0031C62.9655 69.9019 70.231 62.6364 70.231 53.674V21.2181C70.231 12.2557 62.9655 4.99023 54.0031 4.99023Z" fill="#3B9DFB"/>
</g>
<g opacity="0.4">
<path d="M15.0589 9.86C15.5968 9.86 16.0329 9.42395 16.0329 8.88606C16.0329 8.34816 15.5968 7.91211 15.0589 7.91211C14.521 7.91211 14.085 8.34816 14.085 8.88606C14.085 9.42395 14.521 9.86 15.0589 9.86Z" fill="#EDEEF3"/>
<path d="M36.4847 9.86C37.0226 9.86 37.4586 9.42395 37.4586 8.88606C37.4586 8.34816 37.0226 7.91211 36.4847 7.91211C35.9468 7.91211 35.5107 8.34816 35.5107 8.88606C35.5107 9.42395 35.9468 9.86 36.4847 9.86Z" fill="#EDEEF3"/>
<path d="M57.9144 9.86C58.4523 9.86 58.8883 9.42395 58.8883 8.88606C58.8883 8.34816 58.4523 7.91211 57.9144 7.91211C57.3765 7.91211 56.9404 8.34816 56.9404 8.88606C56.9404 9.42395 57.3765 9.86 57.9144 9.86Z" fill="#EDEEF3"/>
<path d="M15.0589 23.4948C15.5968 23.4948 16.0329 23.0587 16.0329 22.5208C16.0329 21.9829 15.5968 21.5469 15.0589 21.5469C14.521 21.5469 14.085 21.9829 14.085 22.5208C14.085 23.0587 14.521 23.4948 15.0589 23.4948Z" fill="#EDEEF3"/>
<path d="M36.4847 23.4948C37.0226 23.4948 37.4586 23.0587 37.4586 22.5208C37.4586 21.9829 37.0226 21.5469 36.4847 21.5469C35.9468 21.5469 35.5107 21.9829 35.5107 22.5208C35.5107 23.0587 35.9468 23.4948 36.4847 23.4948Z" fill="#EDEEF3"/>
<path d="M57.9144 23.4948C58.4523 23.4948 58.8883 23.0587 58.8883 22.5208C58.8883 21.9829 58.4523 21.5469 57.9144 21.5469C57.3765 21.5469 56.9404 21.9829 56.9404 22.5208C56.9404 23.0587 57.3765 23.4948 57.9144 23.4948Z" fill="#EDEEF3"/>
<path d="M15.0589 37.1315C15.5968 37.1315 16.0329 36.6954 16.0329 36.1575C16.0329 35.6196 15.5968 35.1836 15.0589 35.1836C14.521 35.1836 14.085 35.6196 14.085 36.1575C14.085 36.6954 14.521 37.1315 15.0589 37.1315Z" fill="#EDEEF3"/>
<path d="M36.4847 37.1315C37.0226 37.1315 37.4586 36.6954 37.4586 36.1575C37.4586 35.6196 37.0226 35.1836 36.4847 35.1836C35.9468 35.1836 35.5107 35.6196 35.5107 36.1575C35.5107 36.6954 35.9468 37.1315 36.4847 37.1315Z" fill="#EDEEF3"/>
<path d="M57.9144 37.1315C58.4523 37.1315 58.8883 36.6954 58.8883 36.1575C58.8883 35.6196 58.4523 35.1836 57.9144 35.1836C57.3765 35.1836 56.9404 35.6196 56.9404 36.1575C56.9404 36.6954 57.3765 37.1315 57.9144 37.1315Z" fill="#EDEEF3"/>
<path d="M15.0589 50.7663C15.5968 50.7663 16.0329 50.3302 16.0329 49.7923C16.0329 49.2544 15.5968 48.8184 15.0589 48.8184C14.521 48.8184 14.085 49.2544 14.085 49.7923C14.085 50.3302 14.521 50.7663 15.0589 50.7663Z" fill="#EDEEF3"/>
<path d="M36.4847 50.7663C37.0226 50.7663 37.4586 50.3302 37.4586 49.7923C37.4586 49.2544 37.0226 48.8184 36.4847 48.8184C35.9468 48.8184 35.5107 49.2544 35.5107 49.7923C35.5107 50.3302 35.9468 50.7663 36.4847 50.7663Z" fill="#EDEEF3"/>
<path d="M57.9144 50.7663C58.4523 50.7663 58.8883 50.3302 58.8883 49.7923C58.8883 49.2544 58.4523 48.8184 57.9144 48.8184C57.3765 48.8184 56.9404 49.2544 56.9404 49.7923C56.9404 50.3302 57.3765 50.7663 57.9144 50.7663Z" fill="#EDEEF3"/>
<path d="M15.0589 64.401C15.5968 64.401 16.0329 63.965 16.0329 63.4271C16.0329 62.8892 15.5968 62.4531 15.0589 62.4531C14.521 62.4531 14.085 62.8892 14.085 63.4271C14.085 63.965 14.521 64.401 15.0589 64.401Z" fill="#EDEEF3"/>
<path d="M36.4847 64.401C37.0226 64.401 37.4586 63.965 37.4586 63.4271C37.4586 62.8892 37.0226 62.4531 36.4847 62.4531C35.9468 62.4531 35.5107 62.8892 35.5107 63.4271C35.5107 63.965 35.9468 64.401 36.4847 64.401Z" fill="#EDEEF3"/>
<path d="M57.9144 64.401C58.4523 64.401 58.8883 63.965 58.8883 63.4271C58.8883 62.8892 58.4523 62.4531 57.9144 62.4531C57.3765 62.4531 56.9404 62.8892 56.9404 63.4271C56.9404 63.965 57.3765 64.401 57.9144 64.401Z" fill="#EDEEF3"/>
</g>
<g clip-path="url(#clip1_86_4461)">
<path d="M23.821 47.8736C20.6422 44.9799 18.6416 41.0159 18.2018 36.7398C17.762 32.4636 18.9139 28.1753 21.4371 24.695C23.9603 21.2148 27.6778 18.7867 31.8787 17.875C36.0796 16.9634 40.4691 17.6323 44.208 19.7536" stroke="white" strokeWidth="2" strokeLinecap="round" strokeLinejoin="round"/>
<path d="M17.6916 47.7493C15.4709 51.6396 14.7277 54.6584 15.9817 55.9144C17.8857 57.8165 23.8429 55.1271 30.7411 49.6568" stroke="white" strokeWidth="2" strokeLinecap="round" strokeLinejoin="round"/>
<path d="M38.637 48.2745L32.083 41.7205L46.6502 27.1534C47.8383 25.9657 49.3276 25.124 50.9579 24.7185L54.7053 23.7775C54.9641 23.7131 55.2351 23.7166 55.492 23.7879C55.7488 23.8592 55.9829 23.9957 56.1714 24.1843C56.36 24.3728 56.4964 24.6069 56.5678 24.8638C56.6391 25.1207 56.6427 25.3917 56.5782 25.6504L55.6408 29.3997C55.2336 31.0296 54.3907 32.518 53.2023 33.7056L38.637 48.2745Z" stroke="white" strokeWidth="2" strokeLinecap="round" strokeLinejoin="round"/>
<path d="M32.0831 41.721L26.7154 39.9324C26.59 39.8908 26.4773 39.818 26.3881 39.7206C26.2989 39.6231 26.2362 39.5045 26.2059 39.376C26.1756 39.2475 26.1788 39.1134 26.2151 38.9864C26.2514 38.8593 26.3196 38.7438 26.4133 38.6509L28.2843 36.7798C29.0977 35.9665 30.1214 35.3958 31.2409 35.1316C32.3603 34.8674 33.5313 34.9202 34.6223 35.2842L37.5514 36.258L32.0831 41.721Z" stroke="white" strokeWidth="2" strokeLinecap="round" strokeLinejoin="round"/>
<path d="M38.637 48.275L40.4256 53.6445C40.467 53.7699 40.54 53.8826 40.6373 53.9717C40.7347 54.061 40.8533 54.1237 40.9818 54.1539C41.1103 54.1842 41.2445 54.1811 41.3716 54.1448C41.4984 54.1085 41.6141 54.0403 41.7071 53.9466L43.5782 52.0755C44.3914 51.2622 44.962 50.2385 45.2261 49.119C45.4903 47.9996 45.4375 46.8287 45.0738 45.7375L44.0999 42.8083L38.637 48.275Z" stroke="white" strokeWidth="2" strokeLinecap="round" strokeLinejoin="round"/>
</g>
</g>
<path d="M54.0005 2.96094H21.5447C11.4619 2.96094 3.28809 11.1347 3.28809 21.2176V53.6734C3.28809 63.7563 11.4619 71.93 21.5447 71.93H54.0005C64.0834 71.93 72.2572 63.7563 72.2572 53.6734V21.2176C72.2572 11.1347 64.0834 2.96094 54.0005 2.96094Z" stroke="#C7CBDB" stroke-opacity="0.4" strokeWidth="4.05746"/>
</g>
<defs>
<filter id="filter0_i_86_4461" x="5.31934" y="4.99023" width="64.9116" height="64.9116" filterUnits="userSpaceOnUse" color-interpolation-filters="sRGB">
<feFlood flood-opacity="0" result="BackgroundImageFix"/>
<feBlend mode="normal" in="SourceGraphic" in2="BackgroundImageFix" result="shape"/>
<feColorMatrix in="SourceAlpha" type="matrix" values="0 0 0 0 0 0 0 0 0 0 0 0 0 0 0 0 0 0 127 0" result="hardAlpha"/>
<feOffset/>
<feGaussianBlur stdDeviation="5.07134"/>
<feComposite in2="hardAlpha" operator="arithmetic" k2="-1" k3="1"/>
<feColorMatrix type="matrix" values="0 0 0 0 0.222656 0 0 0 0 0.587524 0 0 0 0 0.9375 0 0 0 1 0"/>
<feBlend mode="normal" in2="shape" result="effect1_innerShadow_86_4461"/>
</filter>
<clipPath id="clip0_86_4461">
<rect width="74.9939" height="74.02" fill="white" transform="translate(0.00292969)"/>
</clipPath>
<clipPath id="clip1_86_4461">
<rect width="44" height="44" fill="white" transform="translate(13.999 15)"/>
</clipPath>
</defs>
</svg>
