<svg width="54" height="54" viewBox="0 0 54 54" fill="none" xmlns="http://www.w3.org/2000/svg">
<circle cx="27" cy="27" r="27" fill="#F8F9FA"/>
<rect x="12" y="12" width="30" height="30" rx="15" fill="#FF0000"/>
<path d="M26.266 19.5819C23.8311 19.8605 21.4047 21.8789 21.3046 24.7622C21.2417 26.5226 21.7295 27.8433 23.3647 28.2142C24.0743 26.9316 23.1358 26.6487 22.9899 25.7208C22.3905 21.9185 27.2703 19.3254 29.824 21.98C31.5908 23.8182 30.4277 29.4733 27.5779 28.8855C24.8483 28.3241 28.9141 23.8226 26.7353 22.9387C24.9642 22.2204 24.0228 25.136 24.8626 26.5842C24.3704 29.0746 23.3104 31.4214 23.7395 34.5451C25.1315 33.5102 25.6008 31.5284 25.9856 29.4616C26.6852 29.8969 27.0586 30.3499 27.9513 30.4202C31.2432 30.6812 33.0816 27.0532 32.6323 23.7068C32.2332 20.7399 29.3433 19.2301 26.266 19.5819Z" fill="white"/>
</svg>
